HIERARCHY
ROOT newVegas:Hips
{
	OFFSET 0.000000 96.479958 0.000000
	CHANNELS 6 Xposition Yposition Zposition Xrotation Yrotation Zrotation
	JOINT newVegas:Pelvis
	{
		OFFSET 0.000000 0.000000 0.000000
		CHANNELS 3 Xrotation Yrotation Zrotation
		JOINT newVegas:LeftUpLeg
		{
			OFFSET 18.735201 -5.666702 -4.541200
			CHANNELS 3 Xrotation Yrotation Zrotation
			JOINT newVegas:LeftLeg
			{
				OFFSET -0.021200 -31.938179 0.493100
				CHANNELS 3 Xrotation Yrotation Zrotation
				JOINT newVegas:LeftFoot
				{
					OFFSET 0.021200 -31.938179 -4.336299
					CHANNELS 3 Xrotation Yrotation Zrotation
					JOINT newVegas:LeftToeBase
					{
						OFFSET 0.943001 -26.722000 15.023500
						CHANNELS 3 Xrotation Yrotation Zrotation
						End Site
						{
							OFFSET 0.000000 30.670183 0.000000
						}
					}
				}
				JOINT newVegas:Left_PantLeg
				{
					OFFSET 0.663870 -9.044666 -1.108900
					CHANNELS 3 Xrotation Yrotation Zrotation
					End Site
					{
						OFFSET 1.415995 20.635357 0.000000
					}
				}
			}
		}
		JOINT newVegas:RightUpLeg
		{
			OFFSET -18.735201 -5.666702 -4.541200
			CHANNELS 3 Xrotation Yrotation Zrotation
			JOINT newVegas:RightLeg
			{
				OFFSET 0.018946 -31.938133 0.493100
				CHANNELS 3 Xrotation Yrotation Zrotation
				JOINT newVegas:RightFoot
				{
					OFFSET -0.018946 -31.938126 -4.336299
					CHANNELS 3 Xrotation Yrotation Zrotation
					JOINT newVegas:RightToeBase
					{
						OFFSET -0.943001 -26.722004 15.023500
						CHANNELS 3 Xrotation Yrotation Zrotation
						End Site
						{
							OFFSET 0.000000 30.670187 0.000000
						}
					}
				}
				JOINT newVegas:Right_PantLeg
				{
					OFFSET -0.661674 -9.044716 -1.108900
					CHANNELS 3 Xrotation Yrotation Zrotation
					End Site
					{
						OFFSET -1.415958 20.635269 0.000000
					}
				}
			}
		}
	}
	JOINT newVegas:Spine
	{
		OFFSET 0.000000 10.199997 -0.299500
		CHANNELS 3 Xrotation Yrotation Zrotation
		JOINT newVegas:Spine1
		{
			OFFSET 0.000000 11.900002 -1.516600
			CHANNELS 3 Xrotation Yrotation Zrotation
			JOINT newVegas:Spine2
			{
				OFFSET 0.000000 13.600006 -2.842500
				CHANNELS 3 Xrotation Yrotation Zrotation
				JOINT newVegas:Neck
				{
					OFFSET 0.000000 9.624100 -2.890100
					CHANNELS 3 Xrotation Yrotation Zrotation
					JOINT newVegas:Head
					{
						OFFSET 0.000000 14.068802 -1.351900
						CHANNELS 3 Xrotation Yrotation Zrotation
						JOINT newVegas:Hair_Back
						{
							OFFSET 0.000000 3.231903 -17.524799
							CHANNELS 3 Xrotation Yrotation Zrotation
							End Site
							{
								OFFSET 0.000000 19.849884 0.000000
							}
						}
						JOINT newVegas:Hair_Front
						{
							OFFSET 0.000000 31.260406 4.573800
							CHANNELS 3 Xrotation Yrotation Zrotation
							JOINT newVegas:Hair_Front1
							{
								OFFSET 0.000000 2.284103 11.993300
								CHANNELS 3 Xrotation Yrotation Zrotation
								JOINT newVegas:Hair_Front2
								{
									OFFSET 0.000000 2.284103 11.993300
									CHANNELS 3 Xrotation Yrotation Zrotation
									End Site
									{
										OFFSET 0.000000 12.208862 0.000000
									}
								}
							}
						}
						JOINT newVegas:Jowel
						{
							OFFSET 0.000000 -7.458206 6.864100
							CHANNELS 3 Xrotation Yrotation Zrotation
							End Site
							{
								OFFSET 0.000000 19.849884 0.000000
							}
						}
					}
				}
				JOINT newVegas:LeftShoulder
				{
					OFFSET 15.263000 10.923401 -0.547700
					CHANNELS 3 Xrotation Yrotation Zrotation
					JOINT newVegas:LeftArm
					{
						OFFSET 25.438599 -2.830597 -13.032500
						CHANNELS 3 Xrotation Yrotation Zrotation
						JOINT newVegas:LeftForeArm
						{
							OFFSET 29.960503 0.000000 0.000000
							CHANNELS 3 Xrotation Yrotation Zrotation
							JOINT newVegas:LeftHand
							{
								OFFSET 27.849251 0.000000 0.000000
								CHANNELS 3 Xrotation Yrotation Zrotation
								JOINT newVegas:LeftHandThumb1
								{
									OFFSET 4.487587 -3.305161 6.305391
									CHANNELS 3 Xrotation Yrotation Zrotation
									JOINT newVegas:LeftHandThumb2
									{
										OFFSET 5.480453 -3.164139 3.164143
										CHANNELS 3 Xrotation Yrotation Zrotation
										JOINT newVegas:LeftHandThumb3
										{
											OFFSET 5.159721 -2.978973 2.978967
											CHANNELS 3 Xrotation Yrotation Zrotation
											End Site
											{
												OFFSET 2.494507 5.926697 1.738678
											}
										}
									}
								}
								JOINT newVegas:LeftHandIndex1
								{
									OFFSET 18.578728 -0.527832 5.208049
									CHANNELS 3 Xrotation Yrotation Zrotation
									JOINT newVegas:LeftHandIndex2
									{
										OFFSET 3.192009 0.000000 0.000000
										CHANNELS 3 Xrotation Yrotation Zrotation
										JOINT newVegas:LeftHandIndex3
										{
											OFFSET 3.835129 0.000000 0.000000
											CHANNELS 3 Xrotation Yrotation Zrotation
											End Site
											{
												OFFSET -0.034599 3.816971 0.371180
											}
										}
									}
								}
								JOINT newVegas:LeftHandMiddle1
								{
									OFFSET 18.476105 0.000000 0.000000
									CHANNELS 3 Xrotation Yrotation Zrotation
									JOINT newVegas:LeftHandMiddle2
									{
										OFFSET 3.324875 0.000000 0.000000
										CHANNELS 3 Xrotation Yrotation Zrotation
										JOINT newVegas:LeftHandMiddle3
										{
											OFFSET 4.596550 0.000000 0.000000
											CHANNELS 3 Xrotation Yrotation Zrotation
											End Site
											{
												OFFSET 0.057701 4.578827 0.399218
											}
										}
									}
								}
								JOINT newVegas:LeftHandRing1
								{
									OFFSET 17.732719 0.121887 -4.201567
									CHANNELS 3 Xrotation Yrotation Zrotation
									JOINT newVegas:LeftHandRing2
									{
										OFFSET 2.733170 0.000000 0.000000
										CHANNELS 3 Xrotation Yrotation Zrotation
										JOINT newVegas:LeftHandRing3
										{
											OFFSET 3.178268 0.000000 0.000000
											CHANNELS 3 Xrotation Yrotation Zrotation
											End Site
											{
												OFFSET 0.119102 3.170624 0.185394
											}
										}
									}
								}
								JOINT newVegas:LeftHandPinky1
								{
									OFFSET 15.989624 -0.606689 -7.535461
									CHANNELS 3 Xrotation Yrotation Zrotation
									JOINT newVegas:LeftHandPinky2
									{
										OFFSET 2.538986 0.000000 0.000000
										CHANNELS 3 Xrotation Yrotation Zrotation
										JOINT newVegas:LeftHandPinky3
										{
											OFFSET 2.593102 0.000000 0.000000
											CHANNELS 3 Xrotation Yrotation Zrotation
											End Site
											{
												OFFSET -0.150902 2.584198 0.152708
											}
										}
									}
								}
							}
							JOINT newVegas:Left_Sleeve
							{
								OFFSET 0.267448 -0.649796 0.577675
								CHANNELS 3 Xrotation Yrotation Zrotation
								End Site
								{
									OFFSET 0.000000 15.991241 0.000000
								}
							}
							JOINT newVegas:Left_CapeC
							{
								OFFSET 15.715958 -8.608795 -6.935905
								CHANNELS 3 Xrotation Yrotation Zrotation
								JOINT newVegas:Left_CapeC1
								{
									OFFSET 0.000000 -8.688499 0.000000
									CHANNELS 3 Xrotation Yrotation Zrotation
									End Site
									{
										OFFSET 0.000000 8.688499 0.000000
									}
								}
							}
						}
						JOINT newVegas:Left_CapeB
						{
							OFFSET 26.118385 -8.608795 -7.079235
							CHANNELS 3 Xrotation Yrotation Zrotation
							JOINT newVegas:Left_CapeB1
							{
								OFFSET 0.000000 -8.688499 0.000000
								CHANNELS 3 Xrotation Yrotation Zrotation
								End Site
								{
									OFFSET 0.000000 8.688499 0.000000
								}
							}
						}
						JOINT newVegas:Left_CapeA
						{
							OFFSET 5.115639 -8.608795 -10.395809
							CHANNELS 3 Xrotation Yrotation Zrotation
							JOINT newVegas:Left_CapeA1
							{
								OFFSET 0.000000 -8.688499 0.000000
								CHANNELS 3 Xrotation Yrotation Zrotation
								End Site
								{
									OFFSET 0.000000 8.688499 0.000000
								}
							}
						}
					}
				}
				JOINT newVegas:RightShoulder
				{
					OFFSET -15.263000 10.923401 -0.547700
					CHANNELS 3 Xrotation Yrotation Zrotation
					JOINT newVegas:RightArm
					{
						OFFSET -25.438599 -2.830597 -13.032500
						CHANNELS 3 Xrotation Yrotation Zrotation
						JOINT newVegas:RightForeArm
						{
							OFFSET -29.960503 0.000000 0.000000
							CHANNELS 3 Xrotation Yrotation Zrotation
							JOINT newVegas:RightHand
							{
								OFFSET -27.849251 0.000000 0.000000
								CHANNELS 3 Xrotation Yrotation Zrotation
								JOINT newVegas:RightHandThumb1
								{
									OFFSET -4.487587 -3.305161 6.305391
									CHANNELS 3 Xrotation Yrotation Zrotation
									JOINT newVegas:RightHandThumb2
									{
										OFFSET -5.480453 -3.164139 3.164143
										CHANNELS 3 Xrotation Yrotation Zrotation
										JOINT newVegas:RightHandThumb3
										{
											OFFSET -5.159721 -2.978973 2.978967
											CHANNELS 3 Xrotation Yrotation Zrotation
											End Site
											{
												OFFSET -2.494507 5.926697 1.738678
											}
										}
									}
								}
								JOINT newVegas:RightHandIndex1
								{
									OFFSET -18.578728 -0.527832 5.208049
									CHANNELS 3 Xrotation Yrotation Zrotation
									JOINT newVegas:RightHandIndex2
									{
										OFFSET -3.192009 0.000000 0.000000
										CHANNELS 3 Xrotation Yrotation Zrotation
										JOINT newVegas:RightHandIndex3
										{
											OFFSET -3.835129 0.000000 0.000000
											CHANNELS 3 Xrotation Yrotation Zrotation
											End Site
											{
												OFFSET 0.034599 3.816971 0.371180
											}
										}
									}
								}
								JOINT newVegas:RightHandMiddle1
								{
									OFFSET -18.476105 0.000000 0.000000
									CHANNELS 3 Xrotation Yrotation Zrotation
									JOINT newVegas:RightHandMiddle2
									{
										OFFSET -3.324875 0.000000 0.000000
										CHANNELS 3 Xrotation Yrotation Zrotation
										JOINT newVegas:RightHandMiddle3
										{
											OFFSET -4.596550 0.000000 0.000000
											CHANNELS 3 Xrotation Yrotation Zrotation
											End Site
											{
												OFFSET -0.057701 4.578827 0.399218
											}
										}
									}
								}
								JOINT newVegas:RightHandRing1
								{
									OFFSET -17.732719 0.121887 -4.201567
									CHANNELS 3 Xrotation Yrotation Zrotation
									JOINT newVegas:RightHandRing2
									{
										OFFSET -2.733170 0.000000 0.000000
										CHANNELS 3 Xrotation Yrotation Zrotation
										JOINT newVegas:RightHandRing3
										{
											OFFSET -3.178268 0.000000 0.000000
											CHANNELS 3 Xrotation Yrotation Zrotation
											End Site
											{
												OFFSET -0.119102 3.170624 0.185394
											}
										}
									}
								}
								JOINT newVegas:RightHandPinky1
								{
									OFFSET -15.989624 -0.606689 -7.535461
									CHANNELS 3 Xrotation Yrotation Zrotation
									JOINT newVegas:RightHandPinky2
									{
										OFFSET -2.538986 0.000000 0.000000
										CHANNELS 3 Xrotation Yrotation Zrotation
										JOINT newVegas:RightHandPinky3
										{
											OFFSET -2.593102 0.000000 0.000000
											CHANNELS 3 Xrotation Yrotation Zrotation
											End Site
											{
												OFFSET 0.150902 2.584198 0.152708
											}
										}
									}
								}
							}
							JOINT newVegas:Right_CapeC
							{
								OFFSET -15.715958 -8.608795 -6.935905
								CHANNELS 3 Xrotation Yrotation Zrotation
								JOINT newVegas:Right_CapeC1
								{
									OFFSET 0.000000 -8.688499 0.000000
									CHANNELS 3 Xrotation Yrotation Zrotation
									End Site
									{
										OFFSET 0.000000 8.688499 0.000000
									}
								}
							}
							JOINT newVegas:Right_Sleeve
							{
								OFFSET -0.267448 -0.649994 0.577675
								CHANNELS 3 Xrotation Yrotation Zrotation
								End Site
								{
									OFFSET 0.000000 15.991302 0.000000
								}
							}
						}
						JOINT newVegas:Right_CapeA
						{
							OFFSET -5.115540 -8.608795 -10.395824
							CHANNELS 3 Xrotation Yrotation Zrotation
							JOINT newVegas:Right_CapeA1
							{
								OFFSET 0.000000 -8.688499 0.000000
								CHANNELS 3 Xrotation Yrotation Zrotation
								End Site
								{
									OFFSET 0.000000 8.688499 0.000000
								}
							}
						}
						JOINT newVegas:Right_CapeB
						{
							OFFSET -26.118187 -8.608795 -7.079266
							CHANNELS 3 Xrotation Yrotation Zrotation
							JOINT newVegas:Right_CapeB1
							{
								OFFSET 0.000000 -8.688499 0.000000
								CHANNELS 3 Xrotation Yrotation Zrotation
								End Site
								{
									OFFSET 0.000000 8.688499 0.000000
								}
							}
						}
					}
				}
				JOINT newVegas:Left_Collar
				{
					OFFSET 18.625099 8.655502 8.828100
					CHANNELS 3 Xrotation Yrotation Zrotation
					JOINT newVegas:Left_Collar1
					{
						OFFSET 14.783401 10.540405 -1.259500
						CHANNELS 3 Xrotation Yrotation Zrotation
						End Site
						{
							OFFSET 0.000000 18.199875 0.000000
						}
					}
				}
				JOINT newVegas:Collar_Back
				{
					OFFSET 0.000000 15.630707 -20.132601
					CHANNELS 3 Xrotation Yrotation Zrotation
					End Site
					{
						OFFSET 0.000000 22.523010 0.000000
					}
				}
				JOINT newVegas:Left_Peck
				{
					OFFSET 17.239599 -5.132599 25.482599
					CHANNELS 3 Xrotation Yrotation Zrotation
					End Site
					{
						OFFSET 0.000000 22.523010 0.000000
					}
				}
				JOINT newVegas:Right_Peck
				{
					OFFSET -17.239599 -5.132202 25.482599
					CHANNELS 3 Xrotation Yrotation Zrotation
					End Site
					{
						OFFSET 0.000000 22.523010 0.000000
					}
				}
				JOINT newVegas:Right_Collar
				{
					OFFSET -18.625099 8.655792 8.828100
					CHANNELS 3 Xrotation Yrotation Zrotation
					JOINT newVegas:Right_Collar1
					{
						OFFSET -14.783401 10.539993 -1.259500
						CHANNELS 3 Xrotation Yrotation Zrotation
						End Site
						{
							OFFSET 0.000000 18.199631 0.000000
						}
					}
				}
			}
		}
		JOINT newVegas:Belly
		{
			OFFSET 0.000000 -6.540398 9.014299
			CHANNELS 3 Xrotation Yrotation Zrotation
			End Site
			{
				OFFSET 0.000000 11.566666 0.000000
			}
		}
	}
	JOINT newVegas:ElvisFacialAnim_Joint
	{
		OFFSET 1.000000 -95.330101 -8.825800
		CHANNELS 3 Xrotation Yrotation Zrotation
		End Site
		{
			OFFSET 0.000000 35.315800 0.000000
		}
	}
}
MOTION
Frames: 4
Frame Time: 0.033333
2.502912 89.048973 3.710021 15.624915 23.107411 -11.633970 -0.000001 -0.000001 -0.000000 -56.626913 -7.346023 2.889311 67.412143 4.909764 4.446600 22.178312 -2.074305 -15.399433 0.000001 -0.000001 0.000000 0.000001 0.000002 0.000001 -6.076617 -4.736917 4.656978 16.397262 -9.252128 2.772834 -25.082070 -20.767448 1.834826 -0.000000 -0.000000 -0.000000 0.000001 0.000000 -0.000000 6.448743 10.942651 4.079450 1.122183 2.864772 0.578873 1.144861 2.851968 0.580829 -1.944399 -0.836415 -0.009107 -1.944394 -0.836394 -0.009111 0.000003 -0.000001 0.000000 -1.944396 -0.836420 -0.009111 -1.944317 -0.836398 -0.009109 -0.000001 0.000002 -0.000001 0.000003 -0.000001 -0.000000 -0.159646 -7.433399 -19.418057 -28.127204 -9.077107 -57.083275 -0.000006 -1.934586 -0.000006 30.512145 -4.353729 -2.352000 4.324050 5.394775 5.995361 15.219941 9.120321 7.739339 -0.000000 -0.000003 -0.000005 0.163343 -2.229548 -10.599354 1.196177 3.548905 -37.243546 0.000001 -0.000002 0.000003 -0.082996 3.131782 -21.976934 1.052934 3.352483 -34.864018 0.000000 -0.000000 -0.000001 1.271837 6.152775 -26.508543 1.407069 3.809841 -40.528782 -0.000000 -0.000001 -0.000000 -1.001054 3.922898 -30.724643 1.059586 3.361991 -34.977628 -0.000000 -0.000003 0.000001 -0.000002 0.000001 0.000001 -0.000002 0.000001 0.000001 -0.000003 0.000001 0.000001 0.000001 -0.000003 0.000001 0.000001 -0.000002 0.000002 0.000001 -0.000003 0.000001 0.000001 -0.000002 0.000001 6.830364 -2.042158 14.658735 4.952167 17.937103 54.324507 -0.000006 6.393898 0.000002 -15.744771 14.176063 13.604711 -7.624541 18.944580 -14.577210 34.599419 -41.804402 20.656850 -0.000000 0.000000 -0.000002 -1.670732 1.050051 23.247128 2.596194 -4.177210 63.709006 0.000000 -0.000004 -0.000000 -3.312502 -1.302882 47.938987 1.932805 -3.778589 54.168260 0.000000 0.000001 0.000001 0.455790 -4.918903 53.186055 1.457228 -3.385469 46.567140 -0.000003 0.000001 -0.000001 -0.466195 -3.742518 45.684287 1.394690 -3.325253 45.499076 0.000000 0.000003 0.000000 -0.000000 0.000002 0.000001 -0.000000 0.000002 0.000000 -0.000000 0.000001 0.000001 -0.000001 0.000003 0.000000 -0.000001 0.000003 -0.000000 -0.000001 0.000003 0.000000 -0.000001 0.000003 -0.000000 -0.000000 -0.000002 -0.000000 -0.000000 -0.000002 -0.000000 -0.000000 -0.000002 -0.000000 -0.000000 -0.000002 -0.000000 -0.000000 -0.000002 -0.000000 -0.000000 -0.000002 -0.000000 -0.000000 -0.000002 -0.000000 -0.000002 -0.000002 0.000001 -0.000001 -0.000001 -0.000000 
2.405817 89.522575 7.484415 16.259409 23.497633 -9.607835 0.000000 -0.000002 -0.000000 -59.873978 -2.776044 -0.150756 57.879474 6.313489 1.142223 19.632993 -1.978442 -17.427535 -0.000001 0.000002 -0.000001 0.000002 -0.000001 -0.000000 -1.377323 -5.196964 4.098729 10.864736 -9.731944 2.014683 -23.980132 -19.833560 1.575621 -0.000000 -0.000001 -0.000000 0.000000 0.000000 -0.000000 9.439788 14.175400 1.375233 1.899458 3.836053 0.804755 1.932838 3.838737 0.723045 -2.058024 -0.939833 -0.104805 -2.058035 -0.939826 -0.104809 -0.000004 -0.000001 -0.000000 -2.058047 -0.939847 -0.104807 -2.058031 -0.939835 -0.104805 0.000001 0.000001 -0.000002 -0.000004 -0.000001 0.000002 0.005397 -8.559823 -19.139809 -25.164891 -6.339473 -53.692646 0.000005 -1.660663 -0.000007 36.366772 -0.891088 -8.435127 4.276597 5.224641 5.944959 15.240464 9.236513 7.665554 0.000003 0.000003 -0.000001 0.124873 -2.152862 -11.405918 1.258819 3.629668 -38.244118 0.000002 -0.000000 -0.000000 -0.065648 3.230427 -22.782936 1.099549 3.418304 -35.653383 0.000001 -0.000001 0.000002 1.310247 6.188273 -27.305928 1.472991 3.885453 -41.511182 -0.000001 -0.000001 0.000002 -1.015926 3.954606 -31.581432 1.118710 3.444824 -35.973660 -0.000000 0.000000 -0.000002 -0.000002 0.000003 -0.000002 -0.000002 0.000003 -0.000002 -0.000002 0.000003 -0.000002 0.000000 0.000000 0.000002 0.000000 0.000001 0.000003 0.000000 0.000000 0.000002 -0.000001 -0.000000 0.000001 5.316809 1.825418 9.385979 5.363431 18.908294 55.605335 -0.000003 9.168950 0.000003 -14.695372 14.260009 14.760343 -7.477301 19.065163 -14.534182 34.488668 -41.638718 20.616923 0.000000 -0.000003 0.000001 -1.665763 1.193859 23.174562 2.579998 -4.169191 63.486328 0.000000 0.000001 0.000001 -3.319695 -1.260930 47.714233 1.918045 -3.767922 53.943960 -0.000000 0.000004 0.000000 0.323155 -4.829306 53.403077 1.441894 -3.370909 46.306934 -0.000001 0.000002 -0.000001 -0.820523 -4.301964 46.434484 1.376017 -3.306821 45.176142 -0.000000 0.000002 -0.000001 0.000001 -0.000002 -0.000000 -0.000000 -0.000003 0.000000 0.000001 -0.000003 -0.000000 -0.000000 0.000001 -0.000001 -0.000000 0.000002 -0.000001 -0.000000 0.000001 -0.000001 -0.000000 0.000002 -0.000001 0.000001 -0.000001 -0.000000 0.000001 -0.000001 -0.000000 0.000001 -0.000001 -0.000000 0.000001 -0.000001 -0.000000 0.000001 -0.000001 -0.000000 0.000001 -0.000001 -0.000000 0.000001 -0.000001 -0.000000 0.000000 0.000000 0.000001 0.000000 -0.000002 -0.000000 
2.371439 89.601303 11.302773 17.971177 23.159520 -8.369495 0.000000 -0.000000 -0.000000 -58.943658 0.332163 -3.318450 39.876089 7.083427 -1.984279 14.202551 -1.310840 -18.752873 0.000000 0.000000 -0.000002 0.000000 -0.000000 0.000001 1.675209 -5.278704 3.635008 5.907709 -9.848313 1.556006 -22.480408 -19.128566 1.257561 -0.000000 0.000001 0.000000 0.000002 -0.000000 -0.000000 12.111407 17.211952 -1.893388 2.763980 4.824037 1.412759 2.800512 4.946808 1.381699 -2.271500 -1.006238 -0.119716 -2.271513 -1.006272 -0.119710 0.000001 -0.000001 0.000001 -2.271566 -1.006230 -0.119722 -2.271426 -1.006278 -0.119708 0.000001 -0.000000 -0.000001 0.000001 -0.000001 0.000001 -0.340077 -11.070688 -18.435379 -20.819142 -4.861373 -50.847234 -0.000008 -2.468533 -0.000020 46.769519 0.021967 -15.325857 4.144380 4.752073 5.804019 15.293019 9.559552 7.460653 0.000000 -0.000001 -0.000006 0.020410 -1.950626 -13.648057 1.440229 3.848220 -41.025442 -0.000000 -0.000001 -0.000002 -0.009553 3.500860 -25.008079 1.233820 3.597792 -37.847516 -0.000002 0.000000 -0.000001 1.415876 6.283791 -29.488826 1.661598 4.088163 -44.223494 -0.000001 -0.000001 0.000000 -1.055720 4.042361 -33.902945 1.287885 3.666157 -38.701095 0.000003 -0.000002 -0.000002 0.000002 0.000003 0.000001 0.000002 0.000003 0.000001 0.000001 0.000003 0.000001 0.000002 -0.000001 -0.000002 0.000002 -0.000002 -0.000001 0.000002 -0.000001 -0.000002 0.000001 -0.000001 -0.000002 4.693169 4.633605 5.797652 6.434028 19.416817 53.014924 0.000001 12.066370 0.000005 -11.727032 15.125152 15.405290 -7.073943 19.397949 -14.419344 34.178991 -41.189872 20.512030 0.000001 0.000000 -0.000004 -1.650257 1.587532 22.975366 2.535791 -4.146903 62.876761 -0.000000 0.000001 0.000000 -3.338119 -1.146893 47.105281 1.877855 -3.738373 53.330015 0.000001 0.000002 0.000000 -0.035387 -4.594632 53.984367 1.400664 -3.331109 45.601802 0.000001 -0.000003 -0.000004 -1.687092 -5.819754 48.391593 1.326549 -3.257001 44.312116 -0.000000 0.000001 0.000001 -0.000000 -0.000003 -0.000000 0.000000 -0.000002 -0.000000 -0.000000 -0.000004 -0.000000 -0.000000 -0.000002 0.000000 -0.000000 -0.000001 0.000000 -0.000000 -0.000002 0.000000 -0.000000 -0.000001 0.000000 -0.000001 0.000000 0.000001 -0.000001 0.000000 0.000001 -0.000001 0.000000 0.000001 -0.000001 0.000000 0.000001 -0.000001 0.000000 0.000001 -0.000001 0.000000 0.000001 -0.000001 0.000000 0.000001 0.000001 0.000001 -0.000001 0.000000 -0.000000 -0.000000 
2.460936 87.949715 16.993723 19.434224 21.463846 -7.162913 0.000000 -0.000001 0.000000 -55.476921 0.401199 -4.975042 17.593679 6.435784 -3.002713 11.087224 -0.876777 -20.940506 0.000001 -0.000002 -0.000002 0.000003 0.000001 -0.000001 2.818927 -5.893524 3.182269 8.305764 -9.945601 1.485109 -25.832527 -16.866117 1.465774 0.000000 0.000000 0.000000 0.000001 -0.000000 0.000000 10.346998 19.259740 -5.434806 5.347605 5.651826 2.045675 5.263959 5.756323 2.169677 -2.398043 -1.046716 0.099664 -2.398034 -1.046738 0.099679 -0.000000 0.000002 -0.000003 -2.398050 -1.046738 0.099666 -2.397950 -1.046716 0.099663 0.000002 0.000002 0.000002 -0.000000 0.000002 -0.000001 -0.866423 -14.402618 -17.551715 -15.281946 -1.796482 -48.023859 -0.000003 -3.827139 0.000018 52.040813 -0.223848 -21.306859 3.941792 4.032134 5.586732 15.373397 10.052171 7.147705 -0.000003 0.000000 -0.000001 -0.125746 -1.639938 -17.065637 1.736786 4.163840 -45.268510 0.000000 -0.000001 -0.000000 0.097902 3.903447 -28.372471 1.451575 3.861184 -41.194274 -0.000004 -0.000000 0.000000 1.575058 6.422186 -32.752089 1.964417 4.377011 -48.324500 0.000001 -0.000001 0.000000 -1.121779 4.182997 -37.324450 1.560042 3.981403 -42.780166 -0.000001 -0.000005 -0.000002 -0.000000 -0.000002 -0.000002 -0.000000 -0.000002 -0.000002 -0.000001 -0.000002 -0.000002 -0.000002 -0.000003 -0.000000 -0.000001 -0.000003 0.000001 -0.000002 -0.000003 -0.000000 -0.000002 -0.000003 0.000001 4.585508 6.079360 3.730575 7.280992 20.113784 48.334216 0.000001 14.725041 -0.000008 -7.909000 16.496640 14.894609 -6.470106 19.902591 -14.256011 33.725831 -40.517249 20.365869 0.000003 0.000001 -0.000000 -1.621837 2.175877 22.675769 2.470184 -4.112720 61.965764 -0.000000 0.000001 -0.000001 -3.362528 -0.977844 46.207609 1.818387 -3.693455 52.412416 0.000000 0.000000 -0.000000 -0.563709 -4.268005 54.827943 1.340805 -3.271528 44.562295 0.000000 0.000002 0.000001 -2.745853 -8.070113 51.121285 1.256234 -3.183513 43.060542 0.000000 0.000005 -0.000000 -0.000000 -0.000001 0.000000 -0.000000 -0.000001 0.000000 -0.000000 -0.000001 0.000000 0.000000 0.000001 -0.000000 0.000000 0.000002 0.000000 0.000000 0.000001 -0.000000 0.000000 0.000002 0.000000 -0.000003 0.000003 -0.000000 -0.000003 0.000003 -0.000000 -0.000003 0.000003 -0.000000 -0.000003 0.000003 -0.000000 -0.000003 0.000003 -0.000000 -0.000003 0.000003 -0.000000 -0.000003 0.000003 -0.000000 -0.000000 0.000001 0.000000 0.000000 -0.000001 0.000000 
